<svg width="24" height="23" viewBox="0 0 24 23" fill="none" xmlns="http://www.w3.org/2000/svg">
<path d="M21.6833 5.65527C20.6407 4.01241 19.1874 2.71708 17.3234 1.80087C15.4278 0.916254 13.2794 0.442352 10.8783 0.442352H0.420898V5.43411H10.6256C12.5212 5.43411 14.0377 5.9712 15.175 7.04537C16.3124 8.15114 16.9127 9.63603 16.9127 11.5C16.9127 13.3957 16.3124 14.8805 15.175 15.9547C14.0377 17.0289 12.5212 17.566 10.6256 17.566H6.67638V11.6896H0.420898V22.5577H10.8783C13.2794 22.5577 15.4278 22.1154 17.3234 21.1992C19.1874 20.3146 20.6407 19.0193 21.6833 17.3448C22.6942 15.702 23.2313 13.7432 23.2313 11.5C23.2313 9.28851 22.6942 7.32972 21.6833 5.65527Z" fill="white"/>
</svg>
